<?xml version="1.0" encoding="UTF-8" standalone="no"?>
<!DOCTYPE svg PUBLIC "-//W3C//DTD SVG 1.1//EN" "http://www.w3.org/Graphics/SVG/1.1/DTD/svg11.dtd">
<svg xmlns="http://www.w3.org/2000/svg" version="1.1" viewBox="0.00 0.00 1773.00 1773.00">
<path fill="#ffffff" d="
  M 1766.98 0.00
  Q 1751.38 11.45 1736.32 23.60
  C 1724.26 33.33 1714.59 40.30 1705.15 48.27
  C 1698.77 53.65 1690.95 58.86 1685.15 63.65
  Q 1671.66 74.79 1639.00 100.00
  Q 1626.53 109.63 1584.40 143.15
  C 1578.07 148.19 1569.71 154.07 1563.53 159.30
  Q 1554.74 166.74 1547.63 172.03
  A 4.18 4.16 26.5 0 1 1545.13 172.86
  L 228.90 173.58
  A 3.39 3.36 -25.6 0 1 226.80 172.85
  Q 199.66 151.29 197.44 149.57
  C 174.93 132.08 152.92 114.54 130.08 96.95
  Q 106.42 78.72 83.00 60.29
  Q 57.13 39.94 31.57 19.69
  Q 21.22 11.49 4.96 0.00
  L 1766.98 0.00
  Z"
/>
<path fill="#ffffff" d="
  M 1773.00 4.74
  L 1773.00 6.23
  Q 1772.76 5.81 1772.65 5.22
  Q 1772.80 4.92 1773.00 4.74
  Z"
/>
<path fill="#84cbed" d="
  M 1772.65 5.22
  Q 1772.76 5.81 1773.00 6.23
  L 1773.00 800.56
  L 1594.23 786.71
  A 0.40 0.40 0.0 0 1 1593.86 786.31
  L 1593.51 146.20
  A 1.77 1.76 70.7 0 1 1594.17 144.82
  Q 1610.14 131.79 1632.57 114.55
  Q 1634.22 113.28 1707.77 55.76
  Q 1709.25 54.60 1717.86 47.89
  Q 1731.41 37.33 1743.87 27.30
  C 1753.13 19.83 1762.45 12.79 1771.76 5.56
  Q 1772.11 5.28 1772.65 5.22
  Z"
/>
<path fill="#ffffff" d="
  M 0.36 5.72
  Q 0.29 6.66 0.00 7.25
  L 0.00 5.49
  Q 0.41 5.92 0.36 5.72
  Z"
/>
<path fill="#84cbed" d="
  M 0.53 1250.05
  Q 0.35 1248.99 0.00 1249.00
  L 0.00 7.25
  Q 0.29 6.66 0.36 5.72
  C 20.74 20.65 41.10 36.95 60.34 51.82
  C 70.80 59.90 80.99 68.15 91.93 76.67
  Q 125.14 102.56 174.13 140.63
  A 3.07 3.06 -71.1 0 1 175.31 143.05
  L 175.61 1126.60
  A 1.42 1.41 63.8 0 1 175.32 1127.46
  Q 174.44 1128.65 172.65 1129.91
  C 109.47 1174.17 55.83 1211.23 1.44 1249.71
  Q 1.08 1249.96 0.53 1250.05
  Z"
/>
<path fill="#84cbed" d="
  M 182.72 148.13
  A 0.51 0.51 0.0 0 1 183.49 147.98
  L 224.16 180.15
  A 2.90 2.84 -25.3 0 0 225.95 180.77
  L 1547.98 180.05
  A 4.07 4.04 -64.0 0 0 1550.50 179.17
  L 1585.88 150.92
  A 0.32 0.32 0.0 0 1 1586.40 151.17
  L 1586.75 786.41
  A 0.50 0.50 0.0 0 1 1586.20 786.91
  Q 1574.86 785.88 1565.65 785.09
  C 1543.27 783.17 1530.96 796.16 1521.77 814.54
  Q 1515.42 827.26 1511.73 837.37
  A 1.02 1.01 14.1 0 1 1510.63 838.02
  Q 1502.43 836.80 1491.03 835.44
  Q 1470.89 833.03 1457.75 834.40
  Q 1449.84 835.22 1437.63 837.26
  Q 1420.65 840.11 1417.54 840.04
  Q 1407.21 839.81 1397.68 835.79
  Q 1383.28 829.72 1379.30 828.24
  C 1370.61 825.01 1360.55 825.01 1353.66 831.68
  C 1348.49 836.67 1346.75 845.75 1346.86 852.95
  Q 1346.87 853.75 1347.57 866.51
  Q 1348.14 876.77 1343.97 886.48
  Q 1336.63 903.61 1330.98 919.75
  A 0.76 0.75 8.8 0 1 1330.28 920.26
  Q 1271.60 921.96 1194.78 924.86
  Q 1188.32 925.10 1181.96 926.44
  C 1166.74 929.65 1159.00 941.52 1157.77 956.51
  Q 1156.37 973.61 1155.85 998.25
  C 1154.86 1045.75 1153.94 1082.37 1154.73 1125.49
  A 0.13 0.13 0.0 0 1 1154.60 1125.62
  L 788.53 1125.82
  A 0.79 0.78 -4.7 0 1 787.75 1125.17
  C 784.52 1106.23 770.07 1093.60 751.14 1095.38
  A 0.54 0.54 0.0 0 1 750.55 1094.89
  Q 750.49 1094.31 750.44 1091.00
  Q 750.34 1083.96 743.63 1080.84
  C 734.93 1076.81 724.92 1075.38 716.17 1074.60
  C 694.66 1072.68 671.90 1072.96 651.05 1078.28
  C 643.57 1080.19 636.26 1083.08 636.18 1092.24
  Q 636.04 1107.90 636.29 1124.94
  A 0.77 0.77 0.0 0 1 635.52 1125.72
  L 183.46 1125.97
  A 0.74 0.74 0.0 0 1 182.72 1125.23
  L 182.59 148.39
  A 0.10 0.08 -38.0 0 1 182.60 148.35
  L 182.72 148.13
  Z
  M 1271.80 836.03
  Q 1271.98 809.45 1271.94 799.00
  Q 1271.86 780.01 1272.05 316.78
  Q 1272.06 312.82 1270.64 310.71
  C 1268.90 308.11 1266.19 308.37 1262.82 308.38
  Q 931.78 308.51 510.32 308.42
  C 502.69 308.42 497.37 307.79 497.36 316.75
  Q 497.21 682.02 497.16 825.50
  Q 497.16 830.98 497.20 836.05
  A 0.65 0.65 0.0 0 1 496.55 836.70
  Q 485.79 836.74 470.05 836.63
  C 466.84 836.60 465.63 839.79 465.59 842.57
  Q 465.26 866.49 465.38 870.47
  Q 465.56 876.43 471.26 876.67
  Q 474.72 876.82 485.75 876.82
  Q 920.64 876.82 1295.50 876.83
  Q 1297.95 876.83 1300.52 876.36
  C 1304.98 875.55 1305.44 869.69 1305.46 866.25
  Q 1305.53 855.25 1305.47 844.75
  C 1305.44 840.93 1304.96 836.48 1300.03 836.43
  Q 1298.43 836.42 1272.37 836.60
  A 0.56 0.56 0.0 0 1 1271.80 836.03
  Z"
/>
<path fill="#ffffff" d="
  M 1264.65 315.60
  L 1264.94 835.93
  A 0.32 0.32 0.0 0 1 1264.62 836.25
  L 505.49 836.67
  A 0.32 0.32 0.0 0 1 505.17 836.35
  L 504.89 316.02
  A 0.32 0.32 0.0 0 1 505.21 315.70
  L 1264.33 315.28
  A 0.32 0.32 0.0 0 1 1264.65 315.60
  Z
  M 1245.79 337.64
  A 3.98 3.98 0.0 0 0 1241.81 333.66
  L 527.96 334.06
  A 3.98 3.98 0.0 0 0 523.98 338.04
  L 524.24 815.78
  A 3.98 3.98 0.0 0 0 528.22 819.76
  L 1242.08 819.36
  A 3.98 3.98 0.0 0 0 1246.06 815.38
  L 1245.79 337.64
  Z"
/>
<path fill="#bedb7f" d="
  M 1212.15 341.28
  L 1212.40 799.18
  A 0.99 0.99 0.0 0 1 1211.41 800.17
  L 532.54 800.54
  A 0.99 0.99 0.0 0 1 531.55 799.55
  L 531.30 341.65
  A 0.99 0.99 0.0 0 1 532.29 340.66
  L 1211.16 340.29
  A 0.99 0.99 0.0 0 1 1212.15 341.28
  Z"
/>
<path fill="#ffffff" d="
  M 1216.04 341.20
  A 0.60 0.59 0.0 0 1 1216.64 340.61
  L 1238.13 340.59
  A 0.25 0.25 0.0 0 1 1238.38 340.84
  L 1238.64 811.35
  A 0.63 0.63 0.0 0 1 1238.01 811.98
  L 532.27 812.37
  A 0.69 0.68 90.0 0 1 531.59 811.68
  L 531.58 804.37
  A 0.61 0.61 0.0 0 1 532.19 803.76
  Q 714.46 803.96 1189.44 803.86
  Q 1202.80 803.86 1210.75 803.74
  Q 1213.06 803.71 1214.87 802.80
  A 2.58 2.56 -13.3 0 0 1216.30 800.50
  L 1216.04 341.20
  Z"
/>
<path fill="#bf94c5" d="
  M 1762.85 807.34
  Q 1762.71 807.53 1762.18 807.69
  Q 1750.41 811.33 1743.49 816.52
  Q 1739.42 819.57 1735.55 826.08
  C 1730.99 833.73 1727.45 840.90 1724.30 849.46
  Q 1718.40 865.53 1713.07 884.82
  C 1701.21 927.67 1690.55 971.07 1683.04 1014.42
  C 1680.83 1027.21 1677.90 1042.07 1676.33 1056.56
  Q 1674.78 1070.83 1675.09 1086.43
  A 0.60 0.59 87.5 0 1 1674.54 1087.04
  Q 1657.57 1088.23 1643.52 1088.78
  Q 1640.91 1088.88 1638.59 1087.94
  C 1615.06 1078.40 1594.45 1071.31 1567.67 1061.70
  A 2.75 2.74 -80.2 0 1 1565.85 1059.11
  Q 1565.84 1055.51 1566.68 1051.20
  C 1569.52 1036.68 1574.12 1025.35 1579.94 1009.20
  Q 1582.08 1003.26 1585.45 988.75
  Q 1589.99 969.17 1593.27 949.00
  Q 1594.41 941.99 1597.29 910.92
  C 1598.36 899.29 1599.71 890.41 1602.66 881.66
  Q 1604.63 875.81 1610.11 862.12
  C 1612.00 857.40 1613.75 850.72 1612.98 845.74
  C 1611.02 833.07 1598.32 832.04 1587.94 834.94
  Q 1574.00 838.84 1566.52 840.81
  Q 1554.56 843.96 1541.25 842.05
  Q 1535.19 841.18 1519.84 838.93
  A 0.55 0.55 0.0 0 1 1519.41 838.20
  Q 1526.18 820.56 1536.04 805.32
  C 1542.87 794.78 1554.15 791.91 1566.00 792.46
  C 1580.15 793.13 1598.46 795.22 1610.67 795.84
  C 1628.03 796.73 1649.08 798.20 1669.75 800.00
  Q 1719.62 804.33 1762.76 807.15
  A 0.12 0.12 0.0 0 1 1762.85 807.34
  Z"
/>
<path fill="#bf94c5" d="
  M 1772.80 808.58
  Q 1772.71 809.71 1773.00 809.50
  L 1773.00 1080.49
  L 1682.63 1086.81
  A 0.86 0.86 0.0 0 1 1681.71 1086.03
  Q 1681.13 1079.86 1681.66 1073.43
  C 1683.33 1052.85 1686.85 1035.43 1691.28 1010.89
  C 1700.05 962.27 1711.69 914.48 1726.33 866.29
  Q 1729.36 856.32 1734.56 843.28
  C 1738.67 832.95 1742.85 826.29 1748.75 816.42
  A 4.26 4.24 84.2 0 1 1749.44 815.57
  C 1755.40 809.92 1765.88 808.91 1772.80 808.58
  Z"
/>
<path fill="#ffffff" d="
  M 1773.00 808.49
  L 1773.00 809.50
  Q 1772.71 809.71 1772.80 808.58
  Q 1772.90 808.53 1773.00 808.49
  Z"
/>
<path fill="#fddf64" d="
  M 1305.63 1052.63
  C 1302.29 1051.81 1299.84 1050.33 1299.28 1046.72
  C 1298.13 1039.24 1303.48 1032.52 1307.67 1026.68
  Q 1314.95 1016.52 1317.74 1002.25
  Q 1321.54 982.84 1323.87 970.64
  C 1325.87 960.18 1330.38 947.26 1332.57 939.43
  C 1337.44 922.01 1343.18 907.50 1350.82 889.06
  C 1354.37 880.50 1355.61 872.79 1354.86 863.01
  C 1354.33 856.07 1353.68 850.00 1354.95 844.06
  C 1358.12 829.33 1372.48 833.43 1382.14 837.38
  Q 1386.35 839.10 1400.79 844.46
  Q 1412.43 848.78 1424.07 846.85
  Q 1452.75 842.10 1455.25 841.78
  C 1465.93 840.40 1477.13 840.90 1489.55 842.47
  Q 1519.46 846.24 1541.27 849.43
  C 1558.20 851.91 1571.95 847.08 1590.26 841.78
  C 1594.92 840.44 1603.72 839.92 1605.43 845.80
  C 1606.84 850.68 1603.96 858.33 1601.82 863.60
  Q 1597.11 875.20 1594.58 883.32
  C 1590.68 895.80 1590.45 905.99 1588.73 924.25
  Q 1585.40 959.56 1577.23 991.76
  Q 1573.59 1006.09 1569.65 1016.90
  C 1565.40 1028.53 1561.59 1038.82 1559.64 1049.94
  C 1558.32 1057.41 1558.30 1067.55 1557.38 1073.82
  C 1556.03 1083.09 1545.96 1086.80 1537.79 1083.73
  Q 1523.30 1078.30 1512.75 1074.80
  Q 1498.08 1069.94 1483.26 1070.09
  Q 1463.65 1070.30 1454.75 1070.03
  Q 1425.25 1069.15 1398.97 1064.27
  Q 1383.71 1061.43 1360.96 1056.80
  Q 1354.24 1055.44 1346.87 1054.52
  C 1333.30 1052.82 1318.55 1055.79 1305.63 1052.63
  Z
  M 1588.61 872.12
  Q 1582.97 881.10 1579.40 890.39
  C 1572.41 908.57 1566.18 924.63 1561.07 942.28
  Q 1548.76 984.84 1545.33 1027.28
  Q 1544.28 1040.23 1545.93 1056.47
  A 0.30 0.30 0.0 0 0 1546.23 1056.74
  L 1546.51 1056.74
  A 0.49 0.49 0.0 0 0 1547.00 1056.28
  C 1548.53 1030.36 1552.11 1005.54 1556.86 979.88
  C 1560.84 958.35 1566.44 939.81 1573.65 918.08
  Q 1576.68 908.96 1579.83 900.76
  C 1584.30 889.16 1587.49 881.80 1589.16 872.33
  A 0.30 0.30 0.0 0 0 1588.61 872.12
  Z"
/>
<rect fill="#ffffff" x="472.60" y="843.48" width="825.48" height="26.28" rx="0.96"/>
<path fill="#bf94c5" d="
  M 1564.64 1391.80
  A 0.29 0.29 0.0 0 1 1564.93 1392.10
  Q 1563.79 1437.16 1564.40 1477.06
  Q 1564.69 1495.33 1565.36 1507.15
  A 0.32 0.31 17.6 0 1 1564.85 1507.41
  C 1547.26 1493.72 1532.44 1481.13 1513.77 1465.94
  Q 1374.76 1352.81 1319.45 1306.79
  C 1281.11 1274.90 1250.80 1250.73 1209.28 1215.57
  Q 1194.09 1202.70 1177.48 1190.04
  C 1171.31 1185.34 1166.11 1179.73 1164.69 1172.06
  Q 1163.37 1164.94 1162.73 1153.50
  Q 1162.22 1144.20 1161.56 1107.50
  Q 1161.12 1083.11 1161.57 1061.49
  Q 1162.62 1011.78 1163.94 979.00
  Q 1164.52 964.53 1165.67 954.68
  C 1166.51 947.42 1169.70 939.35 1176.45 935.95
  Q 1179.19 934.57 1184.51 933.47
  Q 1190.66 932.20 1201.53 931.86
  Q 1238.51 930.70 1327.66 927.42
  A 0.52 0.51 -83.0 0 1 1328.17 928.08
  L 1324.89 939.22
  A 1.43 1.43 0.0 0 1 1323.57 940.25
  Q 1276.13 942.33 1227.50 944.80
  C 1217.84 945.29 1209.58 946.57 1203.61 954.32
  Q 1199.14 960.12 1198.64 969.73
  Q 1198.17 978.71 1198.20 986.50
  Q 1198.40 1040.16 1198.35 1058.75
  Q 1198.34 1061.35 1197.62 1064.10
  Q 1193.31 1080.34 1192.64 1099.06
  Q 1192.42 1105.15 1193.06 1111.66
  C 1193.83 1119.54 1194.98 1126.98 1199.79 1132.71
  C 1203.20 1136.78 1207.72 1139.99 1212.14 1143.37
  Q 1228.06 1155.52 1237.56 1162.74
  C 1251.57 1173.37 1266.18 1183.38 1280.36 1194.76
  Q 1287.78 1200.73 1302.44 1211.51
  Q 1309.37 1216.61 1324.45 1228.18
  Q 1335.92 1236.99 1349.13 1240.84
  C 1350.89 1241.35 1352.42 1243.08 1353.52 1244.69
  C 1360.86 1255.39 1369.59 1261.81 1379.84 1269.41
  Q 1469.57 1335.92 1519.34 1372.03
  C 1524.11 1375.49 1531.20 1380.11 1535.71 1383.07
  Q 1548.94 1391.72 1564.64 1391.80
  Z"
/>
<path fill="#bf94c5" d="
  M 1205.92 1051.76
  A 0.41 0.40 75.0 0 1 1205.30 1051.40
  C 1206.30 1025.14 1205.42 997.05 1205.72 972.51
  Q 1205.79 966.14 1208.17 961.22
  C 1211.49 954.38 1216.90 952.47 1224.07 951.87
  Q 1231.47 951.25 1241.25 950.86
  Q 1277.27 949.43 1321.92 947.86
  A 0.48 0.47 -82.6 0 1 1322.39 948.48
  Q 1316.01 969.14 1312.86 989.21
  C 1311.16 1000.10 1309.09 1009.58 1304.14 1017.64
  C 1298.05 1027.54 1294.58 1032.01 1292.08 1039.84
  A 0.51 0.50 -81.4 0 1 1291.60 1040.20
  Q 1260.74 1040.52 1228.78 1044.59
  C 1220.24 1045.68 1212.81 1047.46 1205.92 1051.76
  Z"
/>
<path fill="#bf94c5" d="
  M 1623.63 1089.91
  A 0.23 0.23 0.0 0 1 1623.54 1090.36
  C 1598.05 1089.53 1575.42 1098.47 1568.97 1125.35
  A 0.92 0.91 5.4 0 1 1568.12 1126.05
  Q 1557.02 1126.49 1546.50 1127.24
  Q 1510.09 1129.84 1431.49 1136.42
  Q 1411.49 1138.09 1390.75 1141.75
  C 1373.20 1144.85 1357.18 1150.69 1352.76 1169.77
  C 1348.08 1189.96 1347.40 1211.36 1349.08 1232.18
  A 0.73 0.73 0.0 0 1 1348.08 1232.92
  Q 1335.38 1227.84 1324.38 1219.36
  C 1295.65 1197.21 1274.61 1181.50 1235.39 1151.87
  C 1226.86 1145.43 1220.53 1140.87 1211.24 1133.75
  Q 1201.19 1126.07 1200.35 1113.08
  Q 1199.02 1092.58 1203.04 1071.78
  C 1204.61 1063.67 1207.39 1057.96 1215.80 1055.03
  Q 1222.90 1052.56 1228.20 1051.92
  Q 1250.62 1049.18 1267.50 1047.95
  Q 1274.57 1047.43 1291.26 1047.26
  A 0.79 0.79 0.0 0 1 1292.00 1047.78
  Q 1292.58 1049.41 1293.08 1050.94
  C 1295.85 1059.30 1308.72 1061.17 1316.27 1061.15
  C 1323.82 1061.13 1338.79 1060.04 1350.24 1062.08
  C 1359.66 1063.76 1367.00 1065.12 1375.62 1067.07
  C 1404.91 1073.68 1435.78 1077.36 1466.17 1077.17
  C 1482.17 1077.07 1492.41 1076.37 1505.51 1080.25
  Q 1511.30 1081.96 1530.80 1088.87
  Q 1540.55 1092.33 1544.18 1092.25
  C 1553.84 1092.06 1561.79 1085.89 1563.87 1076.38
  Q 1565.07 1070.90 1565.27 1069.56
  A 0.68 0.67 -75.7 0 1 1566.17 1069.02
  L 1623.63 1089.91
  Z
  M 1278.86 1109.12
  Q 1301.21 1123.25 1323.83 1137.44
  Q 1336.66 1145.49 1342.40 1148.56
  Q 1343.20 1148.99 1344.63 1149.43
  A 0.61 0.60 -13.7 0 0 1345.24 1148.43
  Q 1340.51 1143.62 1332.52 1138.23
  Q 1315.54 1126.78 1281.96 1105.31
  Q 1281.70 1105.15 1281.46 1105.00
  Q 1281.23 1104.85 1280.97 1104.69
  Q 1247.17 1083.57 1229.54 1073.14
  Q 1221.25 1068.24 1214.87 1066.03
  A 0.61 0.60 78.3 0 0 1214.23 1067.01
  Q 1215.24 1068.11 1215.97 1068.65
  Q 1221.21 1072.52 1233.98 1080.65
  Q 1256.51 1095.00 1278.86 1109.12
  Z"
/>
<path fill="#a5222f" d="
  M 740.35 1088.13
  Q 739.91 1088.44 739.31 1088.59
  Q 693.22 1100.08 645.93 1088.83
  A 0.72 0.72 0.0 0 1 645.46 1087.80
  Q 645.50 1087.71 645.82 1087.58
  Q 650.14 1085.76 658.08 1084.11
  Q 694.74 1076.52 732.54 1084.47
  Q 736.73 1085.35 740.31 1087.32
  A 0.48 0.47 -47.9 0 1 740.35 1088.13
  Z"
/>
<path fill="#bf94c5" d="
  M 1772.72 1088.02
  Q 1772.63 1089.14 1773.00 1089.00
  L 1773.00 1115.85
  Q 1716.62 1118.15 1660.25 1120.98
  Q 1649.09 1121.54 1639.17 1127.39
  Q 1619.87 1138.80 1618.14 1160.82
  Q 1617.34 1171.02 1617.46 1182.50
  Q 1618.57 1285.81 1618.52 1310.25
  Q 1618.40 1369.28 1617.39 1456.50
  Q 1617.08 1483.09 1619.13 1509.43
  A 0.69 0.69 0.0 0 0 1620.46 1509.63
  Q 1621.85 1506.10 1622.27 1502.26
  Q 1623.59 1490.16 1624.00 1474.50
  C 1626.42 1383.41 1625.85 1310.28 1625.02 1179.31
  C 1624.93 1164.78 1624.47 1150.43 1634.68 1140.13
  Q 1640.40 1134.35 1647.24 1131.28
  C 1653.20 1128.60 1659.94 1128.34 1667.50 1127.95
  Q 1730.37 1124.73 1773.00 1123.22
  L 1773.00 1520.72
  C 1708.80 1526.35 1672.01 1529.81 1624.75 1532.12
  C 1614.35 1532.63 1604.20 1533.15 1594.95 1528.15
  Q 1584.92 1522.72 1575.59 1514.89
  A 4.31 4.27 -77.3 0 1 1574.19 1512.65
  Q 1573.29 1509.10 1572.94 1505.00
  Q 1571.86 1492.02 1571.60 1476.50
  Q 1571.16 1450.74 1571.69 1421.50
  C 1573.19 1339.26 1572.63 1262.13 1572.63 1171.50
  Q 1572.63 1154.92 1573.74 1140.00
  C 1574.15 1134.41 1575.94 1125.25 1578.34 1120.06
  Q 1586.15 1103.26 1605.01 1099.52
  Q 1612.89 1097.97 1622.50 1097.46
  C 1668.27 1095.06 1723.81 1090.76 1770.81 1087.85
  Q 1771.76 1087.79 1772.72 1088.02
  Z"
/>
<path fill="#ffffff" d="
  M 1773.00 1087.74
  L 1773.00 1089.00
  Q 1772.63 1089.14 1772.72 1088.02
  Q 1772.81 1087.84 1773.00 1087.74
  Z"
/>
<path fill="#a5222f" d="
  M 643.58 1095.22
  Q 649.07 1097.03 654.06 1097.93
  Q 687.08 1103.88 721.17 1099.37
  Q 732.77 1097.83 743.09 1094.93
  A 0.53 0.52 81.9 0 1 743.75 1095.43
  Q 744.45 1130.53 743.23 1164.25
  C 743.00 1170.44 742.62 1178.71 739.29 1185.22
  C 733.84 1195.85 719.86 1198.29 709.23 1198.91
  Q 693.55 1199.82 678.13 1198.80
  C 669.29 1198.22 661.55 1196.30 654.44 1191.33
  C 646.32 1185.64 644.72 1176.57 644.29 1167.25
  Q 642.66 1131.80 643.16 1095.52
  A 0.32 0.32 0.0 0 1 643.58 1095.22
  Z"
/>
<path fill="#a5222f" d="
  M 751.01 1102.21
  C 764.79 1100.70 775.37 1108.55 779.40 1121.33
  C 786.28 1143.15 773.86 1163.27 751.81 1168.08
  A 1.14 1.14 0.0 0 1 750.43 1166.97
  L 750.43 1162.92
  A 1.88 1.86 -6.8 0 1 751.88 1161.09
  Q 764.92 1158.07 771.16 1146.48
  Q 775.60 1138.25 774.88 1129.54
  C 774.00 1118.84 767.38 1110.51 756.64 1109.39
  Q 755.48 1109.27 750.96 1109.18
  A 0.24 0.24 0.0 0 1 750.73 1108.94
  L 750.73 1102.53
  A 0.33 0.32 -4.1 0 1 751.01 1102.21
  Z"
/>
<path fill="#84cbed" d="
  M 751.01 1116.56
  Q 760.00 1115.09 765.01 1121.65
  Q 766.34 1123.39 766.69 1125.28
  A 0.31 0.31 0.0 0 1 766.39 1125.65
  L 751.37 1126.17
  A 0.27 0.27 0.0 0 1 751.09 1125.91
  L 750.78 1116.84
  A 0.28 0.27 -6.0 0 1 751.01 1116.56
  Z"
/>
<path fill="#ffffff" d="
  M 1154.40 1132.68
  A 0.56 0.55 -0.5 0 1 1154.96 1133.22
  L 1155.72 1155.48
  A 0.41 0.41 0.0 0 1 1155.31 1155.91
  Q 1087.45 1155.93 1086.75 1155.91
  Q 1084.61 1155.82 1082.78 1155.21
  Q 1062.67 1148.56 1048.14 1145.37
  C 1022.61 1139.78 1001.05 1136.22 973.44 1132.49
  A 0.10 0.06 32.3 0 1 973.37 1132.35
  Q 973.43 1132.34 973.43 1132.32
  L 973.56 1132.32
  C 981.28 1132.36 988.12 1132.64 996.17 1132.63
  Q 1098.51 1132.56 1154.40 1132.68
  Z"
/>
<path fill="#ffffff" d="
  M 0.70 1324.03
  L 0.00 1325.76
  L 0.00 1259.01
  Q 89.02 1197.07 177.55 1135.03
  C 181.88 1132.00 188.67 1132.74 192.25 1132.72
  Q 258.85 1132.50 636.21 1132.66
  A 0.18 0.18 0.0 0 1 636.39 1132.84
  L 636.40 1142.26
  A 0.28 0.26 -5.2 0 1 636.17 1142.52
  Q 606.05 1147.35 576.61 1155.64
  A 4.28 4.08 35.7 0 1 575.46 1155.80
  L 191.93 1156.01
  A 4.32 4.32 0.0 0 0 189.13 1157.04
  L 1.25 1315.45
  A 0.70 0.69 -19.2 0 0 1.00 1315.96
  L 0.70 1324.03
  Z"
/>
<path fill="#3a5eac" d="
  M 635.98 1150.54
  A 0.69 0.69 0.0 0 1 636.77 1151.21
  Q 636.95 1163.12 638.16 1174.03
  C 639.63 1187.34 645.39 1196.43 658.05 1201.48
  Q 668.79 1205.78 683.54 1206.42
  C 699.16 1207.10 714.59 1207.33 729.50 1201.78
  Q 744.10 1196.34 748.16 1181.94
  Q 748.64 1180.23 749.61 1175.88
  A 0.94 0.93 -88.1 0 1 750.37 1175.16
  C 761.62 1173.19 770.97 1169.22 778.20 1160.42
  Q 787.72 1148.83 788.27 1133.98
  A 0.97 0.96 -89.4 0 1 789.21 1133.05
  Q 834.32 1132.35 883.25 1133.28
  C 903.70 1133.67 922.88 1135.77 942.52 1137.16
  Q 959.94 1138.39 987.77 1142.13
  Q 987.89 1142.14 1004.37 1144.23
  C 1020.00 1146.20 1037.23 1150.43 1053.46 1154.10
  Q 1077.93 1159.63 1099.88 1169.88
  C 1107.49 1173.44 1118.26 1179.89 1121.40 1188.06
  C 1125.48 1198.69 1115.40 1206.40 1107.38 1210.91
  Q 1088.62 1221.46 1068.93 1227.19
  Q 1036.19 1236.72 1004.74 1241.96
  Q 952.43 1250.68 901.99 1253.91
  Q 793.35 1260.86 685.35 1251.28
  Q 659.01 1248.94 636.76 1245.51
  C 611.45 1241.61 589.00 1237.62 565.79 1231.46
  C 553.00 1228.06 513.43 1215.26 514.63 1198.91
  C 515.84 1182.53 552.75 1171.37 565.59 1167.05
  Q 583.61 1160.99 590.57 1159.31
  Q 611.97 1154.13 635.98 1150.54
  Z
  M 813.15 1165.56
  Q 813.60 1166.52 814.37 1167.15
  Q 819.34 1171.27 819.86 1177.17
  C 820.23 1181.37 820.08 1185.81 818.61 1189.76
  C 817.41 1192.96 811.61 1193.71 812.52 1197.80
  C 812.94 1199.70 816.97 1201.01 818.45 1201.32
  Q 849.35 1207.76 874.63 1211.98
  C 892.23 1214.92 906.85 1218.65 922.77 1221.71
  Q 928.74 1222.86 932.60 1223.05
  A 11.70 11.49 -51.0 0 0 936.38 1222.62
  C 957.28 1216.67 978.42 1212.20 998.54 1206.74
  C 1015.72 1202.08 1026.10 1199.76 1041.00 1195.78
  Q 1044.74 1194.78 1045.86 1193.12
  Q 1047.93 1190.09 1049.15 1184.88
  Q 1051.71 1174.02 1047.49 1164.08
  C 1045.49 1159.36 1043.21 1157.31 1038.19 1156.35
  Q 992.77 1147.63 939.04 1138.97
  Q 934.79 1138.29 932.54 1138.82
  Q 924.61 1140.70 914.02 1142.77
  Q 871.90 1151.03 832.23 1158.46
  Q 824.02 1159.99 817.50 1161.48
  Q 815.27 1161.99 813.70 1163.17
  A 2.00 1.89 59.5 0 0 813.15 1165.56
  Z"
/>
<path fill="#bf94c5" d="
  M 1566.32 1132.93
  A 0.42 0.42 0.0 0 1 1566.77 1133.40
  Q 1565.54 1143.87 1565.56 1150.76
  Q 1565.65 1195.38 1565.02 1383.41
  A 1.02 1.02 0.0 0 1 1563.98 1384.42
  C 1551.13 1384.15 1539.72 1377.61 1529.54 1370.46
  Q 1514.77 1360.10 1493.38 1344.41
  Q 1445.73 1309.46 1412.01 1284.16
  Q 1389.07 1266.96 1372.42 1254.97
  Q 1370.17 1253.34 1366.33 1249.75
  C 1357.55 1241.51 1355.99 1229.95 1355.56 1218.76
  Q 1354.80 1198.54 1357.64 1180.66
  Q 1359.40 1169.60 1364.59 1161.38
  C 1370.32 1152.29 1387.71 1149.44 1398.00 1147.74
  Q 1412.82 1145.29 1434.50 1143.53
  Q 1454.36 1141.91 1566.32 1132.93
  Z
  M 1550.60 1271.51
  Q 1550.59 1271.45 1550.29 1271.22
  Q 1547.02 1268.65 1537.34 1262.66
  Q 1504.62 1242.42 1451.27 1209.50
  Q 1410.98 1184.64 1392.12 1173.38
  Q 1384.14 1168.61 1377.77 1166.01
  Q 1376.22 1165.37 1374.95 1165.31
  A 0.54 0.54 0.0 0 0 1374.57 1166.26
  Q 1376.31 1167.80 1380.14 1170.55
  C 1391.08 1178.41 1408.36 1188.11 1417.91 1194.18
  Q 1455.91 1218.28 1495.15 1241.85
  C 1516.11 1254.43 1531.10 1263.94 1550.16 1271.84
  A 0.32 0.32 0.0 0 0 1550.60 1271.51
  Z"
/>
<path fill="#3a5eac" d="
  M 767.36 1134.05
  A 0.63 0.63 0.0 0 1 767.98 1134.77
  Q 765.81 1148.36 754.18 1153.19
  Q 752.56 1153.86 751.23 1153.97
  A 0.59 0.59 0.0 0 1 750.60 1153.36
  L 751.53 1134.50
  A 0.46 0.46 0.0 0 1 751.99 1134.06
  L 767.36 1134.05
  Z"
/>
<path fill="#b93e84" d="
  M 1023.01 1160.35
  A 0.35 0.35 0.0 0 1 1023.03 1161.04
  L 932.84 1181.98
  A 8.99 8.82 43.4 0 1 929.13 1182.05
  C 902.44 1176.92 873.56 1172.28 844.79 1166.98
  Q 841.40 1166.36 837.20 1165.08
  A 0.32 0.31 47.3 0 1 837.22 1164.47
  C 866.53 1158.57 904.58 1152.24 925.52 1148.03
  Q 929.88 1147.15 934.53 1145.79
  A 7.35 7.34 42.3 0 1 937.99 1145.63
  Q 970.68 1151.94 993.28 1155.33
  Q 997.93 1156.03 1023.01 1160.35
  Z"
/>
<path fill="#fcb78d" d="
  M 1773.00 1528.29
  L 1773.00 1773.00
  L 0.00 1773.00
  L 0.00 1325.76
  L 0.70 1324.03
  Q 0.82 1324.12 0.96 1324.14
  A 0.37 0.37 0.0 0 0 1.28 1324.06
  Q 15.97 1312.63 34.00 1297.49
  C 65.52 1271.02 91.76 1248.39 119.27 1225.45
  Q 152.65 1197.61 190.15 1165.14
  Q 191.37 1164.08 193.32 1163.15
  A 2.02 1.94 31.3 0 1 194.17 1162.96
  L 552.42 1163.01
  A 0.22 0.22 0.0 0 1 552.50 1163.44
  C 539.74 1167.83 527.68 1173.22 517.24 1181.18
  Q 510.68 1186.18 508.11 1192.93
  Q 506.64 1196.80 506.76 1207.17
  Q 506.92 1221.24 506.93 1221.76
  C 507.09 1230.11 511.69 1234.73 517.32 1240.09
  A 0.28 0.28 0.0 0 1 517.12 1240.58
  Q 504.74 1240.31 489.50 1240.34
  Q 423.40 1240.44 369.77 1240.37
  Q 365.29 1240.36 361.89 1244.67
  Q 357.46 1250.27 355.40 1253.39
  Q 326.48 1297.16 168.83 1535.32
  Q 133.75 1588.33 91.16 1654.14
  Q 86.59 1661.20 79.76 1672.27
  Q 76.75 1677.17 75.91 1682.21
  Q 75.20 1686.55 79.93 1687.02
  Q 87.72 1687.79 98.31 1688.03
  Q 117.11 1688.46 207.75 1689.31
  Q 272.90 1689.92 317.25 1690.01
  Q 478.69 1690.34 667.50 1689.84
  C 771.22 1689.56 863.76 1689.53 935.25 1689.25
  C 1107.26 1688.56 1282.96 1688.57 1427.51 1687.52
  Q 1482.15 1687.13 1519.42 1686.36
  C 1528.08 1686.18 1522.88 1678.38 1519.98 1675.15
  Q 1515.44 1670.12 1494.00 1646.63
  C 1407.10 1551.46 1311.95 1448.88 1233.99 1368.51
  Q 1183.05 1316.01 1129.51 1261.99
  Q 1119.86 1252.26 1110.44 1242.17
  A 0.82 0.81 50.3 0 1 1110.55 1240.96
  Q 1117.84 1235.54 1122.92 1230.20
  C 1127.76 1225.12 1129.39 1220.32 1129.70 1212.72
  Q 1130.06 1203.95 1129.89 1193.26
  C 1129.67 1178.92 1115.59 1168.77 1103.43 1163.51
  A 0.28 0.28 0.0 0 1 1103.55 1162.97
  L 1155.54 1162.94
  A 0.58 0.57 86.6 0 1 1156.11 1163.45
  Q 1157.58 1175.84 1158.57 1178.27
  Q 1161.73 1186.08 1169.83 1192.80
  Q 1182.67 1203.45 1194.95 1213.22
  A 3.84 3.84 0.0 0 1 1196.39 1215.93
  Q 1199.09 1250.13 1201.05 1273.25
  Q 1201.59 1279.65 1206.77 1281.93
  Q 1219.58 1287.56 1233.56 1283.52
  C 1239.31 1281.85 1239.36 1277.97 1240.16 1272.14
  Q 1241.31 1263.81 1242.59 1253.15
  A 0.23 0.23 0.0 0 1 1242.96 1253.00
  C 1286.24 1288.55 1329.87 1324.84 1371.08 1358.62
  Q 1443.74 1418.17 1547.63 1502.91
  Q 1563.66 1515.98 1576.49 1525.25
  Q 1583.15 1530.07 1590.58 1534.19
  A 1.59 1.59 0.0 0 1 1591.40 1535.51
  C 1592.76 1566.73 1595.48 1595.97 1598.54 1628.25
  Q 1598.80 1630.93 1599.34 1641.75
  Q 1599.72 1649.11 1606.24 1652.70
  C 1618.19 1659.29 1635.35 1659.21 1648.54 1654.54
  Q 1654.39 1652.47 1655.18 1646.27
  Q 1655.71 1642.19 1656.93 1631.77
  Q 1662.53 1584.19 1667.34 1537.35
  A 0.74 0.73 0.4 0 1 1668.02 1536.69
  L 1773.00 1528.29
  Z"
/>
<path fill="#b93e84" d="
  M 938.35 1214.50
  A 0.83 0.82 10.3 0 1 937.61 1213.44
  Q 941.31 1201.07 936.46 1189.28
  A 0.76 0.76 0.0 0 1 936.99 1188.26
  L 1037.61 1164.90
  A 2.18 2.18 0.0 0 1 1039.94 1165.85
  C 1043.54 1171.47 1043.43 1180.23 1041.54 1186.04
  Q 1040.83 1188.20 1038.73 1188.73
  Q 1035.30 1189.59 1013.05 1195.55
  C 988.70 1202.07 961.02 1208.61 939.31 1214.34
  Q 938.62 1214.52 938.35 1214.50
  Z"
/>
<path fill="#bf94c5" d="
  M 825.78 1170.40
  A 0.22 0.21 3.0 0 1 826.04 1170.17
  C 849.28 1174.73 865.17 1178.08 886.42 1181.55
  Q 907.14 1184.93 926.00 1188.42
  Q 927.97 1188.79 928.88 1190.55
  Q 935.12 1202.63 930.07 1214.43
  A 1.13 1.13 0.0 0 1 928.83 1215.09
  L 824.52 1195.27
  A 0.29 0.28 17.3 0 1 824.31 1194.88
  Q 828.34 1185.49 826.48 1175.22
  Q 825.92 1172.11 825.78 1170.40
  Z"
/>
<path fill="#3a5eac" d="
  M 514.79 1215.48
  C 516.24 1216.49 518.83 1219.20 520.87 1220.47
  Q 535.09 1229.30 550.16 1234.11
  Q 583.58 1244.77 621.94 1250.61
  Q 694.61 1261.69 762.88 1263.46
  C 819.05 1264.92 876.43 1264.11 933.22 1258.64
  Q 953.78 1256.66 988.17 1251.79
  Q 1021.71 1247.04 1058.46 1237.64
  Q 1076.78 1232.95 1092.89 1226.33
  Q 1108.78 1219.79 1121.67 1208.57
  A 0.31 0.30 62.5 0 1 1122.17 1208.73
  C 1125.48 1222.64 1113.71 1229.47 1104.34 1235.41
  C 1089.30 1244.93 1071.75 1250.59 1054.99 1254.97
  Q 1022.17 1263.54 989.52 1268.28
  C 968.96 1271.27 949.06 1273.84 929.77 1275.48
  C 912.17 1276.97 898.52 1278.60 883.14 1279.38
  Q 835.45 1281.82 795.50 1281.27
  Q 781.99 1281.08 753.16 1280.14
  C 713.94 1278.87 676.53 1274.90 636.56 1269.29
  Q 613.30 1266.03 601.17 1263.39
  Q 582.81 1259.39 566.27 1254.97
  C 549.60 1250.52 531.29 1243.38 518.97 1231.05
  C 514.61 1226.68 514.17 1221.97 514.11 1215.84
  A 0.44 0.43 16.9 0 1 514.79 1215.48
  Z"
/>
<path fill="#af8055" d="
  M 1203.91 1221.04
  A 0.14 0.14 0.0 0 1 1204.14 1220.92
  L 1234.74 1246.07
  A 3.13 3.13 0.0 0 1 1235.85 1248.88
  L 1232.58 1274.58
  A 2.75 2.74 -5.4 0 1 1230.71 1276.84
  C 1224.61 1278.82 1215.66 1278.92 1209.88 1275.45
  A 3.82 3.81 13.3 0 1 1208.05 1272.50
  L 1203.91 1221.04
  Z"
/>
<path fill="#4ab780" d="
  M 1513.43 1679.19
  Q 1513.36 1679.55 1512.89 1679.61
  Q 1512.87 1679.62 1506.80 1679.33
  Q 1503.51 1679.17 1500.70 1679.24
  Q 1459.47 1680.27 1422.90 1680.50
  A 2.75 2.72 -16.4 0 1 1420.58 1679.25
  Q 1415.38 1671.24 1402.43 1651.96
  Q 1390.68 1634.46 1383.69 1624.86
  Q 1370.14 1606.28 1344.91 1577.84
  Q 1316.35 1545.66 1260.68 1482.82
  Q 1255.70 1477.20 1249.64 1470.35
  Q 1220.77 1437.74 1192.73 1405.25
  Q 1186.86 1398.44 1175.72 1385.53
  Q 1168.47 1377.13 1140.24 1345.04
  C 1117.34 1319.01 1097.32 1295.59 1075.57 1270.90
  A 4.06 4.05 -20.6 0 0 1072.52 1269.52
  L 1061.98 1269.53
  A 0.95 0.95 0.0 0 1 1061.04 1268.71
  L 1060.14 1262.04
  A 0.77 0.77 0.0 0 1 1060.67 1261.20
  C 1075.34 1256.63 1088.36 1252.76 1101.88 1245.37
  A 0.90 0.88 44.4 0 1 1102.73 1245.37
  Q 1103.95 1246.03 1105.21 1247.30
  Q 1187.51 1330.61 1208.69 1352.58
  Q 1353.36 1502.59 1503.51 1668.33
  Q 1509.46 1674.89 1513.30 1678.77
  Q 1513.48 1678.95 1513.43 1679.19
  Z"
/>
<path fill="#4ab780" d="
  M 85.65 1680.72
  A 0.98 0.98 0.0 0 1 84.83 1679.25
  Q 93.11 1665.25 105.70 1645.67
  Q 120.57 1622.53 169.87 1547.59
  Q 170.66 1546.39 240.66 1440.40
  Q 270.59 1395.09 278.84 1382.71
  C 299.70 1351.39 320.42 1319.39 342.98 1285.47
  C 349.10 1276.27 356.97 1263.30 363.96 1253.46
  Q 365.26 1251.63 367.18 1249.78
  C 369.01 1248.00 371.45 1248.06 374.25 1248.05
  Q 412.41 1247.91 527.68 1247.87
  A 5.93 5.87 59.1 0 1 530.52 1248.60
  C 543.33 1255.66 556.70 1259.94 570.72 1263.94
  A 0.94 0.93 -78.5 0 1 571.39 1264.96
  L 570.86 1269.16
  A 0.96 0.96 0.0 0 1 569.91 1269.99
  Q 470.69 1269.99 439.50 1270.06
  C 437.14 1270.06 436.16 1270.34 435.05 1272.38
  Q 433.84 1274.61 432.73 1276.97
  C 427.43 1288.26 421.78 1300.82 416.30 1312.27
  Q 387.96 1371.54 371.24 1405.53
  C 350.73 1447.24 329.81 1489.89 311.38 1526.88
  C 307.27 1535.13 301.45 1545.81 297.37 1554.16
  Q 290.98 1567.27 255.95 1637.52
  Q 241.84 1665.83 234.28 1680.27
  C 233.36 1682.04 232.76 1682.58 230.63 1682.55
  C 184.76 1681.87 133.41 1681.78 85.65 1680.72
  Z"
/>
<path fill="#ffffff" d="
  M 0.53 1250.05
  L 0.00 1251.02
  L 0.00 1249.00
  Q 0.35 1248.99 0.53 1250.05
  Z"
/>
<path fill="#40bdbb" d="
  M 1022.50 1270.34
  L 1051.98 1263.49
  A 0.70 0.70 0.0 0 1 1052.83 1264.07
  C 1055.15 1279.52 1059.39 1307.38 1062.42 1331.71
  Q 1066.05 1360.80 1069.55 1382.98
  C 1072.47 1401.46 1074.63 1421.14 1077.27 1439.26
  Q 1079.39 1453.76 1081.39 1468.37
  Q 1082.03 1473.06 1081.95 1476.17
  A 3.65 3.64 78.6 0 1 1079.81 1479.40
  Q 1074.93 1481.59 1069.21 1480.79
  Q 1062.59 1479.87 1061.27 1472.98
  C 1055.12 1440.90 1048.11 1407.39 1042.55 1377.59
  Q 1041.33 1371.07 1037.96 1354.38
  C 1032.73 1328.46 1028.75 1305.30 1022.12 1270.92
  A 0.50 0.50 0.0 0 1 1022.50 1270.34
  Z"
/>
<path fill="#40bdbb" d="
  M 578.75 1266.21
  A 0.23 0.22 -77.9 0 1 579.01 1266.04
  L 607.91 1272.00
  A 0.88 0.88 0.0 0 1 608.60 1272.98
  Q 608.24 1275.68 607.76 1278.00
  C 599.25 1319.52 589.88 1365.16 579.99 1411.62
  Q 570.04 1458.30 566.66 1475.38
  Q 566.15 1477.96 564.38 1479.46
  C 561.04 1482.28 549.52 1481.07 547.11 1477.40
  C 545.99 1475.68 546.79 1470.73 547.12 1468.69
  Q 552.70 1433.38 557.43 1401.82
  Q 561.31 1375.98 566.34 1345.20
  Q 571.15 1315.69 575.08 1288.53
  Q 577.45 1272.19 578.75 1266.21
  Z"
/>
<path fill="#f88935" d="
  M 1019.91 1298.83
  A 0.40 0.40 0.0 0 1 1019.40 1299.29
  L 956.08 1280.63
  A 0.22 0.21 50.6 0 1 956.12 1280.21
  Q 983.97 1277.63 1013.70 1271.83
  A 0.96 0.96 0.0 0 1 1014.83 1272.59
  L 1019.91 1298.83
  Z"
/>
<path fill="#f88935" d="
  M 613.15 1293.91
  A 0.60 0.59 85.8 0 1 612.37 1293.23
  L 615.91 1274.56
  A 0.69 0.68 10.6 0 1 616.71 1274.02
  Q 635.76 1277.33 657.18 1279.33
  Q 657.46 1279.35 657.54 1279.47
  A 0.52 0.50 65.9 0 1 657.26 1280.24
  Q 634.54 1286.65 613.15 1293.91
  Z"
/>
<path fill="#f88935" d="
  M 1115.45 1328.05
  Q 1115.41 1328.06 1115.34 1328.06
  A 0.35 0.06 20.8 0 1 1115.15 1328.02
  L 1068.13 1313.60
  A 1.31 1.29 -85.6 0 1 1067.22 1312.52
  L 1062.49 1277.56
  A 0.55 0.55 0.0 0 1 1063.02 1276.93
  Q 1066.80 1276.81 1069.94 1277.10
  C 1071.55 1277.24 1072.54 1278.56 1073.61 1279.78
  Q 1079.32 1286.26 1115.54 1327.74
  A 0.19 0.19 0.0 0 1 1115.45 1328.05
  Z"
/>
<path fill="#f88935" d="
  M 569.41 1277.80
  L 564.47 1308.49
  A 0.46 0.46 0.0 0 1 564.15 1308.85
  L 403.51 1357.98
  A 0.46 0.46 0.0 0 1 402.96 1357.35
  L 440.96 1277.60
  A 0.46 0.46 0.0 0 1 441.37 1277.34
  L 568.96 1277.27
  A 0.46 0.46 0.0 0 1 569.41 1277.80
  Z"
/>
<path fill="#4ab780" d="
  M 598.27 1362.28
  A 0.25 0.25 0.0 0 1 597.94 1361.99
  L 610.03 1303.37
  A 2.00 1.98 -3.8 0 1 611.33 1301.90
  Q 616.31 1300.21 619.37 1299.35
  Q 648.32 1291.25 674.32 1282.23
  A 6.13 6.10 -55.9 0 1 675.90 1281.92
  Q 678.08 1281.81 679.76 1281.96
  Q 698.90 1283.70 719.25 1285.49
  Q 751.64 1288.35 782.14 1288.18
  A 0.86 0.86 0.0 0 1 783.01 1289.01
  L 783.38 1299.86
  A 1.89 1.87 -10.1 0 1 782.08 1301.71
  L 598.27 1362.28
  Z"
/>
<path fill="#4ab780" d="
  M 1036.03 1382.60
  A 0.35 0.35 0.0 0 1 1035.58 1383.00
  Q 1002.95 1372.56 992.64 1369.08
  C 948.88 1354.29 903.92 1339.72 859.36 1324.44
  Q 842.99 1318.83 824.75 1312.66
  A 1.26 1.26 0.0 0 1 823.89 1311.41
  L 824.99 1289.12
  A 0.68 0.68 0.0 0 1 825.66 1288.47
  C 861.20 1288.38 897.54 1285.94 933.46 1282.46
  A 11.64 11.61 50.4 0 1 937.88 1282.88
  L 1020.13 1307.13
  A 2.39 2.39 0.0 0 1 1021.80 1308.96
  L 1036.03 1382.60
  Z"
/>
<path fill="#40bdbb" d="
  M 790.62 1289.07
  A 0.31 0.31 0.0 0 1 790.93 1288.75
  L 816.91 1288.73
  A 0.76 0.75 -88.5 0 1 817.66 1289.53
  Q 813.86 1363.10 812.47 1394.76
  Q 812.24 1399.98 811.54 1404.13
  A 3.21 3.19 84.2 0 1 809.55 1406.59
  Q 803.87 1408.83 798.29 1407.27
  C 795.11 1406.38 794.10 1402.29 793.97 1399.00
  Q 791.88 1345.44 790.62 1289.07
  Z"
/>
<path fill="#f88935" d="
  M 370.13 1444.67
  L 551.75 1385.37
  A 0.36 0.35 84.9 0 1 552.21 1385.76
  Q 547.53 1419.73 540.72 1462.24
  Q 539.24 1471.48 539.27 1476.28
  C 539.36 1487.86 555.12 1489.29 563.78 1487.55
  Q 572.54 1485.79 574.05 1476.77
  C 575.04 1470.87 576.16 1463.76 577.69 1456.97
  Q 585.32 1423.18 592.25 1389.40
  Q 595.92 1371.53 595.95 1371.38
  A 1.87 1.85 88.0 0 1 597.25 1369.97
  Q 608.53 1366.71 617.68 1363.67
  Q 687.08 1340.59 755.50 1318.25
  Q 767.97 1314.17 782.72 1308.78
  A 0.63 0.62 78.9 0 1 783.56 1309.35
  L 785.86 1376.68
  A 1.59 1.58 79.2 0 1 784.82 1378.23
  Q 663.90 1422.42 659.77 1423.92
  Q 640.77 1430.82 618.86 1438.43
  Q 609.02 1441.85 606.48 1443.18
  Q 603.43 1444.78 604.88 1447.86
  C 605.48 1449.13 608.20 1450.64 609.70 1451.24
  Q 621.82 1456.17 633.36 1461.46
  Q 666.97 1476.86 694.25 1488.32
  Q 698.20 1489.98 712.13 1496.00
  Q 762.03 1517.56 798.24 1533.49
  Q 801.10 1534.75 803.38 1533.75
  Q 818.64 1527.10 921.68 1481.16
  Q 957.31 1465.28 987.79 1451.29
  C 990.16 1450.21 992.79 1448.81 991.37 1445.68
  C 990.03 1442.76 980.46 1439.96 977.95 1439.07
  Q 919.74 1418.38 875.03 1401.95
  C 856.77 1395.24 838.85 1389.02 820.95 1382.40
  A 0.75 0.73 11.8 0 1 820.46 1381.67
  L 823.46 1320.42
  A 0.23 0.22 -78.4 0 1 823.76 1320.22
  L 1036.18 1391.17
  A 2.72 2.70 3.7 0 1 1037.97 1393.19
  Q 1042.94 1417.31 1050.61 1456.45
  Q 1053.19 1469.58 1055.51 1477.17
  Q 1058.34 1486.38 1067.20 1487.87
  Q 1075.76 1489.31 1082.70 1486.52
  C 1091.05 1483.15 1089.58 1475.54 1088.60 1467.74
  Q 1088.17 1464.31 1080.49 1408.50
  Q 1080.38 1407.70 1080.34 1406.41
  A 0.40 0.40 0.0 0 1 1080.86 1406.01
  L 1194.16 1443.86
  A 0.21 0.21 0.0 0 1 1194.19 1444.25
  C 1169.97 1456.30 1141.58 1471.72 1122.05 1481.72
  C 1105.74 1490.07 1086.25 1500.86 1067.09 1510.41
  Q 1062.94 1512.48 1045.03 1521.75
  Q 938.95 1576.62 801.06 1647.51
  A 1.76 1.76 0.0 0 1 799.51 1647.53
  Q 785.27 1640.63 783.97 1640.02
  Q 620.56 1562.97 420.95 1469.55
  Q 397.33 1458.50 370.10 1445.10
  A 0.23 0.23 0.0 0 1 370.13 1444.67
  Z"
/>
<path fill="#4ab780" d="
  M 363.78 1438.65
  A 0.21 0.20 -85.2 0 1 363.54 1438.36
  L 397.57 1368.33
  A 2.38 2.35 5.3 0 1 399.09 1367.08
  C 419.24 1361.78 437.10 1355.29 456.72 1349.52
  Q 486.25 1340.85 502.08 1335.83
  Q 535.30 1325.31 562.36 1317.06
  A 0.48 0.48 0.0 0 1 562.95 1317.36
  Q 563.00 1317.50 562.91 1318.26
  Q 561.25 1333.25 554.53 1372.01
  Q 554.04 1374.86 553.38 1376.16
  A 1.51 1.46 -84.9 0 1 552.53 1376.90
  C 509.53 1391.60 461.20 1406.93 424.89 1419.19
  Q 418.07 1421.49 363.78 1438.65
  Z"
/>
<path fill="#4ab780" d="
  M 1068.55 1321.60
  A 0.54 0.53 -67.3 0 1 1069.19 1321.33
  Q 1095.74 1329.82 1122.45 1337.55
  Q 1125.00 1338.28 1126.70 1340.31
  Q 1143.11 1359.75 1157.35 1375.56
  C 1170.51 1390.16 1179.76 1401.57 1192.80 1416.34
  C 1216.02 1442.65 1234.60 1464.56 1255.58 1488.09
  Q 1270.10 1504.37 1297.36 1535.40
  Q 1299.72 1538.09 1301.05 1539.82
  A 0.66 0.65 51.5 0 1 1300.95 1540.72
  Q 1287.25 1552.20 1272.49 1563.98
  Q 1233.63 1595.01 1126.01 1680.59
  A 5.17 5.12 -64.0 0 1 1122.81 1681.71
  L 526.45 1682.84
  A 3.94 3.93 -28.5 0 1 524.25 1682.19
  L 312.96 1543.95
  A 1.74 1.74 0.0 0 1 312.36 1541.71
  L 358.71 1448.83
  A 0.89 0.88 25.5 0 1 359.88 1448.42
  C 371.84 1454.08 382.10 1458.66 392.30 1463.72
  Q 409.79 1472.41 423.78 1478.95
  Q 584.44 1554.12 748.10 1631.01
  C 763.12 1638.07 775.43 1644.05 796.59 1654.15
  C 800.25 1655.90 802.90 1654.99 806.64 1653.06
  Q 808.70 1652.00 854.23 1628.58
  Q 891.74 1609.28 1084.67 1509.64
  Q 1151.06 1475.35 1198.90 1449.66
  C 1201.22 1448.42 1206.05 1445.80 1206.13 1443.02
  Q 1206.21 1440.50 1203.70 1439.55
  Q 1193.19 1435.55 1189.77 1434.45
  Q 1159.83 1424.84 1079.80 1397.85
  A 1.88 1.86 -84.5 0 1 1078.54 1396.31
  L 1068.45 1321.81
  A 0.16 0.08 76.7 0 1 1068.48 1321.66
  Q 1068.53 1321.62 1068.55 1321.60
  Z"
/>
<path fill="#f88935" d="
  M 820.06 1390.24
  A 0.49 0.49 0.0 0 1 820.72 1389.82
  Q 893.76 1416.82 974.10 1445.38
  Q 976.07 1446.08 979.15 1446.93
  A 0.32 0.32 0.0 0 1 979.19 1447.53
  L 802.26 1526.40
  A 4.31 3.98 25.5 0 1 801.36 1526.68
  Q 800.98 1526.76 796.58 1524.86
  Q 711.56 1488.10 659.16 1465.16
  C 646.58 1459.66 631.26 1452.55 618.03 1446.93
  A 0.32 0.32 0.0 0 1 618.05 1446.34
  Q 691.98 1420.12 724.54 1408.14
  Q 773.00 1390.31 785.14 1385.74
  A 0.83 0.82 79.3 0 1 786.25 1386.50
  Q 786.33 1394.19 786.92 1401.33
  Q 787.96 1414.04 800.78 1414.90
  C 810.17 1415.54 819.11 1412.62 819.47 1401.52
  Q 819.69 1395.07 820.06 1390.24
  Z"
/>
<path fill="#af8055" d="
  M 1599.00 1537.81
  A 0.28 0.28 0.0 0 1 1599.38 1537.53
  C 1607.75 1540.78 1616.92 1539.83 1628.25 1539.28
  Q 1641.71 1538.61 1658.65 1537.22
  A 0.96 0.96 0.0 0 1 1659.68 1538.28
  Q 1657.21 1560.52 1654.24 1590.75
  Q 1652.82 1605.14 1650.81 1619.68
  C 1649.83 1626.79 1649.17 1634.47 1648.32 1643.27
  C 1647.92 1647.51 1645.56 1647.99 1641.59 1649.01
  Q 1625.38 1653.19 1610.82 1646.78
  C 1607.10 1645.14 1607.13 1642.75 1606.70 1638.57
  Q 1601.82 1590.73 1599.00 1537.81
  Z"
/>
<path fill="#f88935" d="
  M 1136.73 1681.83
  A 0.08 0.08 0.0 0 1 1136.68 1681.68
  L 1306.61 1546.04
  A 0.08 0.08 0.0 0 1 1306.72 1546.05
  Q 1328.28 1569.64 1352.48 1597.81
  Q 1368.85 1616.87 1380.02 1632.52
  Q 1397.60 1657.16 1412.37 1679.99
  A 0.35 0.35 0.0 0 1 1412.07 1680.53
  L 1136.73 1681.83
  Z"
/>
<path fill="#f88935" d="
  M 510.42 1682.56
  L 242.30 1682.71
  A 0.34 0.34 0.0 0 1 242.00 1682.22
  L 308.05 1549.86
  A 0.34 0.34 0.0 0 1 308.54 1549.73
  L 510.61 1681.94
  A 0.34 0.34 0.0 0 1 510.42 1682.56
  Z"
/>
</svg>
